<svg xmlns="http://www.w3.org/2000/svg" width="48" height="48" fill="none"><path fill="#68AAF3" d="M24 48c13.25 0 24-10.75 24-24S37.25 0 24 0 0 10.75 0 24s10.75 24 24 24Z"/><path fill="#F9F9F9" fill-rule="evenodd" d="M24 16c-2.17 0-2.44.01-3.3.05-2.91.13-4.52 1.74-4.65 4.65-.04.86-.05 1.13-.05 3.3s.01 2.45.05 3.3c.13 2.9 1.74 4.52 4.65 4.65.86.04 1.13.05 3.3.05s2.45-.01 3.3-.05c2.9-.13 4.52-1.74 4.65-4.65.04-.85.05-1.13.05-3.3s-.01-2.44-.05-3.3c-.13-2.9-1.74-4.52-4.65-4.65-.85-.04-1.13-.05-3.3-.05Zm0 1.44c2.14 0 2.39.01 3.23.05 2.17.1 3.18 1.13 3.28 3.28.04.84.05 1.09.05 3.23 0 2.14-.01 2.39-.05 3.23-.1 2.15-1.11 3.18-3.28 3.28-.84.04-1.09.05-3.23.05-2.14 0-2.39-.01-3.23-.05-2.18-.1-3.18-1.13-3.28-3.28-.04-.84-.05-1.09-.05-3.23 0-2.14.01-2.39.05-3.23.1-2.16 1.11-3.18 3.28-3.28.84-.04 1.09-.05 3.23-.05ZM19.89 24a4.11 4.11 0 1 1 8.22 0 4.11 4.11 0 0 1-8.22 0ZM24 26.67c-1.47 0-2.67-1.2-2.67-2.67s1.2-2.67 2.67-2.67 2.67 1.2 2.67 2.67-1.2 2.67-2.67 2.67Zm3.31-6.94a.96.96 0 1 1 1.92 0 .96.96 0 0 1-1.92 0Z" clip-rule="evenodd"/></svg>