<svg xmlns="http://www.w3.org/2000/svg" width="245" height="180" fill="none"><path fill="#FF4C29" fill-rule="evenodd" d="M237.197 3.901a3.902 3.902 0 1 0 7.803 0 3.902 3.902 0 0 0-7.803 0ZM237.197 72.564a3.902 3.902 0 1 0 7.803-.001 3.902 3.902 0 0 0-7.803 0ZM237.197 141.226a3.901 3.901 0 1 0 7.802 0 3.901 3.901 0 0 0-7.802 0ZM237.197 38.233a3.902 3.902 0 1 0 7.803-.001 3.902 3.902 0 0 0-7.803 0ZM237.197 106.895a3.901 3.901 0 1 0 7.802 0 3.901 3.901 0 0 0-7.802 0ZM237.197 175.557a3.902 3.902 0 1 0 7.804 0 3.902 3.902 0 0 0-7.804 0ZM148.248 3.901a3.902 3.902 0 1 0 7.803 0 3.902 3.902 0 0 0-7.803 0ZM148.248 72.564a3.902 3.902 0 1 0 7.803-.001 3.902 3.902 0 0 0-7.803 0ZM148.248 141.226a3.901 3.901 0 1 0 7.802 0 3.901 3.901 0 0 0-7.802 0ZM148.248 38.233a3.902 3.902 0 1 0 7.803-.001 3.902 3.902 0 0 0-7.803 0ZM148.248 106.895a3.901 3.901 0 1 0 7.802 0 3.901 3.901 0 0 0-7.802 0ZM148.248 175.557a3.902 3.902 0 1 0 7.804 0 3.902 3.902 0 0 0-7.804 0ZM59.3 3.901a3.901 3.901 0 1 0 7.802 0 3.901 3.901 0 0 0-7.803 0ZM59.3 72.564a3.901 3.901 0 1 0 7.802 0 3.901 3.901 0 0 0-7.803 0ZM59.3 141.226a3.9 3.9 0 1 0 7.8 0 3.9 3.9 0 0 0-7.8 0ZM59.3 38.233a3.901 3.901 0 1 0 7.802 0 3.901 3.901 0 0 0-7.803 0ZM59.3 106.895a3.9 3.9 0 1 0 7.8 0 3.9 3.9 0 0 0-7.8 0ZM59.3 175.557a3.902 3.902 0 1 0 7.803 0 3.902 3.902 0 0 0-7.804 0ZM207.548 3.901a3.9 3.9 0 1 0 7.802.001 3.9 3.9 0 0 0-7.802 0ZM207.548 72.564a3.9 3.9 0 1 0 7.802 0 3.9 3.9 0 0 0-7.802 0ZM207.548 141.226a3.9 3.9 0 1 0 7.802 0 3.9 3.9 0 1 0-7.802 0ZM207.548 38.233a3.9 3.9 0 1 0 7.802 0 3.9 3.9 0 0 0-7.802 0ZM207.548 106.895a3.9 3.9 0 1 0 7.802 0 3.9 3.9 0 1 0-7.802 0ZM207.548 175.557a3.901 3.901 0 1 0 7.802.002 3.901 3.901 0 0 0-7.802-.002ZM118.599 3.901a3.9 3.9 0 1 0 7.802.001 3.9 3.9 0 0 0-7.802 0ZM118.599 72.564a3.9 3.9 0 1 0 7.802 0 3.9 3.9 0 0 0-7.802 0ZM118.599 141.226a3.9 3.9 0 1 0 7.802 0 3.9 3.9 0 1 0-7.802 0ZM118.599 38.233a3.9 3.9 0 1 0 7.802 0 3.9 3.9 0 0 0-7.802 0ZM118.599 106.895a3.9 3.9 0 1 0 7.802 0 3.9 3.9 0 1 0-7.802 0ZM118.599 175.557a3.901 3.901 0 1 0 7.802.002 3.901 3.901 0 0 0-7.802-.002ZM29.65 3.901a3.901 3.901 0 1 0 7.802 0 3.901 3.901 0 0 0-7.802 0ZM29.65 72.564a3.901 3.901 0 1 0 7.802 0 3.901 3.901 0 0 0-7.802 0ZM29.65 141.226a3.9 3.9 0 1 0 7.801 0 3.9 3.9 0 0 0-7.801 0ZM29.65 38.233a3.901 3.901 0 1 0 7.802 0 3.901 3.901 0 0 0-7.802 0ZM29.65 106.895a3.9 3.9 0 1 0 7.801 0 3.9 3.9 0 0 0-7.801 0ZM29.65 175.557a3.902 3.902 0 1 0 7.803 0 3.902 3.902 0 0 0-7.803 0ZM177.898 3.901a3.901 3.901 0 1 0 7.803 0 3.901 3.901 0 0 0-7.803 0ZM177.898 72.564a3.901 3.901 0 1 0 7.803 0 3.901 3.901 0 0 0-7.803 0ZM177.898 141.226a3.901 3.901 0 1 0 7.802 0 3.901 3.901 0 0 0-7.802 0ZM177.898 38.233a3.901 3.901 0 1 0 7.803 0 3.901 3.901 0 0 0-7.803 0ZM177.898 106.895a3.901 3.901 0 1 0 7.802 0 3.901 3.901 0 0 0-7.802 0ZM177.898 175.557a3.902 3.902 0 1 0 7.804 0 3.902 3.902 0 0 0-7.804 0ZM88.949 3.901a3.901 3.901 0 1 0 7.803 0 3.901 3.901 0 0 0-7.803 0ZM88.949 72.564a3.901 3.901 0 1 0 7.803 0 3.901 3.901 0 0 0-7.803 0ZM88.949 141.226a3.9 3.9 0 1 0 7.802 0 3.9 3.9 0 0 0-7.802 0ZM88.949 38.233a3.901 3.901 0 1 0 7.803 0 3.901 3.901 0 0 0-7.803 0ZM88.949 106.895a3.9 3.9 0 1 0 7.802 0 3.9 3.9 0 0 0-7.802 0ZM88.949 175.557a3.902 3.902 0 1 0 7.803 0 3.902 3.902 0 0 0-7.803 0ZM0 3.901a3.901 3.901 0 1 0 7.803 0 3.901 3.901 0 0 0-7.803 0ZM0 72.564a3.901 3.901 0 1 0 7.803 0 3.901 3.901 0 0 0-7.803 0ZM0 141.226a3.9 3.9 0 1 0 7.802 0 3.9 3.9 0 0 0-7.802 0ZM0 38.233a3.901 3.901 0 1 0 7.803 0 3.901 3.901 0 0 0-7.803 0ZM0 106.895a3.9 3.9 0 1 0 7.802 0 3.9 3.9 0 0 0-7.802 0ZM0 175.557a3.902 3.902 0 1 0 7.803 0 3.902 3.902 0 0 0-7.803 0Z" clip-rule="evenodd"/></svg>