<svg xmlns="http://www.w3.org/2000/svg" width="48" height="48" fill="none"><path fill="#E17094" d="M24 48c13.25 0 24-10.75 24-24S37.25 0 24 0 0 10.75 0 24s10.75 24 24 24Z"/><path fill="#F9F9F9" d="M32 19.54c-.59.26-1.22.44-1.89.52.68-.41 1.2-1.05 1.45-1.82-.64.38-1.34.65-2.09.8A3.252 3.252 0 0 0 27.08 18c-2.12 0-3.68 1.98-3.2 4.03a9.323 9.323 0 0 1-6.77-3.43 3.283 3.283 0 0 0 1.02 4.38c-.54-.01-1.04-.16-1.48-.41-.04 1.52 1.05 2.95 2.63 3.26-.46.13-.97.16-1.48.06.41 1.3 1.63 2.25 3.06 2.28A6.634 6.634 0 0 1 16 29.53c1.45.93 3.18 1.47 5.03 1.47 6.1 0 9.54-5.14 9.33-9.76a6.63 6.63 0 0 0 1.64-1.7Z"/></svg>