<svg xmlns="http://www.w3.org/2000/svg" width="25" height="25" fill="none"><path stroke="#222" stroke-linecap="round" stroke-linejoin="round" stroke-opacity=".5" stroke-width="1.5" d="M9.539 21.637v-3.195c0-.812.662-1.473 1.483-1.478h3.006c.825 0 1.493.662 1.493 1.478v3.205c0 .69.556 1.253 1.253 1.27h2.004c1.998 0 3.618-1.604 3.618-3.582v0-9.087a2.541 2.541 0 0 0-1.002-1.985l-6.855-5.466a3.313 3.313 0 0 0-4.108 0L3.606 8.273a2.521 2.521 0 0 0-1.002 1.985v9.077c0 1.978 1.62 3.582 3.618 3.582h2.004c.714 0 1.293-.573 1.293-1.28v0"/></svg>
